<svg id="Layer_1" data-name="Layer 1" xmlns="http://www.w3.org/2000/svg" viewBox="0 0 512 341.33"><defs><style>.cls-1{fill:#0028ef;}</style></defs><path class="cls-1" d="M501.33,441H74.67A42.66,42.66,0,0,1,32,398.33v-256A42.66,42.66,0,0,1,74.67,99.67H501.33A42.66,42.66,0,0,1,544,142.33v256A42.66,42.66,0,0,1,501.33,441ZM145.78,202.78V167.22a10.67,10.67,0,0,0-10.67-10.66H99.56a10.66,10.66,0,0,0-10.67,10.66v35.56a10.66,10.66,0,0,0,10.67,10.66h35.55A10.67,10.67,0,0,0,145.78,202.78Zm85.33,0V167.22a10.66,10.66,0,0,0-10.67-10.66H184.89a10.67,10.67,0,0,0-10.67,10.66v35.56a10.67,10.67,0,0,0,10.67,10.66h35.55A10.66,10.66,0,0,0,231.11,202.78Zm85.33,0V167.22a10.66,10.66,0,0,0-10.66-10.66H270.22a10.66,10.66,0,0,0-10.66,10.66v35.56a10.66,10.66,0,0,0,10.66,10.66h35.56A10.66,10.66,0,0,0,316.44,202.78Zm85.34,0V167.22a10.67,10.67,0,0,0-10.67-10.66H355.56a10.66,10.66,0,0,0-10.67,10.66v35.56a10.66,10.66,0,0,0,10.67,10.66h35.55A10.67,10.67,0,0,0,401.78,202.78Zm85.33,0V167.22a10.66,10.66,0,0,0-10.67-10.66H440.89a10.67,10.67,0,0,0-10.67,10.66v35.56a10.67,10.67,0,0,0,10.67,10.66h35.55A10.66,10.66,0,0,0,487.11,202.78ZM188.44,288.11V252.56a10.66,10.66,0,0,0-10.66-10.67H142.22a10.66,10.66,0,0,0-10.66,10.67v35.55a10.67,10.67,0,0,0,10.66,10.67h35.56A10.67,10.67,0,0,0,188.44,288.11Zm85.34,0V252.56a10.67,10.67,0,0,0-10.67-10.67H227.56a10.66,10.66,0,0,0-10.67,10.67v35.55a10.67,10.67,0,0,0,10.67,10.67h35.55A10.67,10.67,0,0,0,273.78,288.11Zm85.33,0V252.56a10.66,10.66,0,0,0-10.67-10.67H312.89a10.67,10.67,0,0,0-10.67,10.67v35.55a10.67,10.67,0,0,0,10.67,10.67h35.55A10.67,10.67,0,0,0,359.11,288.11Zm85.33,0V252.56a10.66,10.66,0,0,0-10.66-10.67H398.22a10.66,10.66,0,0,0-10.66,10.67v35.55a10.67,10.67,0,0,0,10.66,10.67h35.56A10.67,10.67,0,0,0,444.44,288.11ZM145.78,373.44V337.89a10.67,10.67,0,0,0-10.67-10.67H99.56a10.67,10.67,0,0,0-10.67,10.67v35.55a10.66,10.66,0,0,0,10.67,10.67h35.55A10.67,10.67,0,0,0,145.78,373.44Zm256,0V337.89a10.67,10.67,0,0,0-10.67-10.67H184.89a10.67,10.67,0,0,0-10.67,10.67v35.55a10.67,10.67,0,0,0,10.67,10.67H391.11A10.67,10.67,0,0,0,401.78,373.44Zm85.33,0V337.89a10.67,10.67,0,0,0-10.67-10.67H440.89a10.67,10.67,0,0,0-10.67,10.67v35.55a10.67,10.67,0,0,0,10.67,10.67h35.55A10.66,10.66,0,0,0,487.11,373.44Z" transform="translate(-32 -99.67)"/></svg>