<svg id="Layer_1" data-name="Layer 1" xmlns="http://www.w3.org/2000/svg" viewBox="0 0 938 482"><defs><style>.cls-1{fill:#f9f9f9;}.cls-2{fill:#2196f3;}</style></defs><rect class="cls-1" width="938" height="482"/><path class="cls-2" d="M469.33,341.33H42.67A42.66,42.66,0,0,1,0,298.68v-256A42.66,42.66,0,0,1,42.66,0H469.33A42.66,42.66,0,0,1,512,42.65h0v256a42.66,42.66,0,0,1-42.65,42.67ZM113.78,103.11V67.55a10.67,10.67,0,0,0-10.67-10.66H67.56A10.66,10.66,0,0,0,56.89,67.54h0v35.56a10.66,10.66,0,0,0,10.66,10.66h35.56A10.67,10.67,0,0,0,113.78,103.11Zm85.33,0V67.55a10.66,10.66,0,0,0-10.66-10.66H152.89a10.67,10.67,0,0,0-10.67,10.66v35.56a10.67,10.67,0,0,0,10.67,10.66h35.55a10.66,10.66,0,0,0,10.67-10.65Zm85.33,0V67.55a10.66,10.66,0,0,0-10.66-10.66H238.22a10.66,10.66,0,0,0-10.66,10.66h0v35.56a10.66,10.66,0,0,0,10.66,10.66h35.56a10.66,10.66,0,0,0,10.66-10.66Zm85.34,0V67.55a10.67,10.67,0,0,0-10.67-10.66H323.56a10.66,10.66,0,0,0-10.67,10.65h0v35.56a10.66,10.66,0,0,0,10.66,10.66h35.56A10.67,10.67,0,0,0,369.78,103.11Zm85.33,0V67.55a10.66,10.66,0,0,0-10.66-10.66H408.89a10.67,10.67,0,0,0-10.67,10.66v35.56a10.67,10.67,0,0,0,10.67,10.66h35.55a10.66,10.66,0,0,0,10.67-10.65ZM156.44,188.44V152.89a10.66,10.66,0,0,0-10.65-10.67H110.22a10.66,10.66,0,0,0-10.66,10.66h0v35.55a10.67,10.67,0,0,0,10.66,10.67h35.56A10.67,10.67,0,0,0,156.44,188.44Zm85.34,0V152.89a10.67,10.67,0,0,0-10.67-10.67H195.56a10.66,10.66,0,0,0-10.67,10.65v35.57a10.67,10.67,0,0,0,10.67,10.67h35.55a10.67,10.67,0,0,0,10.67-10.67Zm85.33,0V152.89a10.66,10.66,0,0,0-10.65-10.67H280.89a10.67,10.67,0,0,0-10.67,10.67h0v35.55a10.67,10.67,0,0,0,10.67,10.67h35.55A10.67,10.67,0,0,0,327.11,188.44Zm85.33,0V152.89a10.66,10.66,0,0,0-10.65-10.67H366.22a10.66,10.66,0,0,0-10.66,10.66h0v35.55a10.67,10.67,0,0,0,10.66,10.67h35.56A10.67,10.67,0,0,0,412.44,188.44ZM113.78,273.77V238.22a10.67,10.67,0,0,0-10.67-10.67H67.56a10.67,10.67,0,0,0-10.67,10.67h0v35.55a10.66,10.66,0,0,0,10.65,10.67h35.57a10.67,10.67,0,0,0,10.67-10.67Zm256,0V238.22a10.67,10.67,0,0,0-10.67-10.67H152.89a10.67,10.67,0,0,0-10.67,10.67h0v35.55a10.67,10.67,0,0,0,10.67,10.67H359.11a10.67,10.67,0,0,0,10.67-10.67Zm85.33,0V238.22a10.67,10.67,0,0,0-10.67-10.67H408.89a10.67,10.67,0,0,0-10.67,10.67h0v35.55a10.67,10.67,0,0,0,10.67,10.67h35.55a10.66,10.66,0,0,0,10.67-10.65Z" transform="translate(317 88)"/></svg>